<svg width="960" height="480" viewBox="0 0 960 480" fill="none" xmlns="http://www.w3.org/2000/svg">
  <defs><linearGradient id="land" x1="95" y1="71" x2="824" y2="414" gradientUnits="userSpaceOnUse"><stop stop-color="#182A3B"/><stop offset="1" stop-color="#0C1722"/></linearGradient></defs>
  <rect x="1" y="1" width="958" height="478" rx="36" fill="url(#land)" stroke="#2B4052"/>
  <path d="M0 390C143 331 256 310 390 329C524 348 623 404 760 393C843 386 902 355 960 315V480H0V390Z" fill="#0A141E"/>
  <path d="M102 371C220 316 337 293 448 308C570 325 659 376 765 368C826 364 876 344 915 319" stroke="#879EB2" stroke-width="4" stroke-linecap="round"/>
  <path d="M100 369C176 326 232 293 294 246C349 205 407 164 481 137" stroke="#C4B89E" stroke-width="4" stroke-linecap="round" stroke-dasharray="8 11"/>
  <path d="M447 309C503 271 555 232 618 212C682 191 748 194 831 222" stroke="#617B91" stroke-width="3" stroke-linecap="round"/>
  <g><circle cx="103" cy="369" r="12" fill="#C4B89E"/><circle cx="481" cy="137" r="12" fill="#A8BECE"/><circle cx="831" cy="222" r="12" fill="#738B9F"/><circle cx="765" cy="368" r="12" fill="#A8BECE"/></g>
  <g fill="#132334" stroke="#3A5266"><rect x="84" y="70" width="190" height="76" rx="18"/><rect x="383" y="218" width="194" height="76" rx="18"/><rect x="672" y="72" width="202" height="76" rx="18"/></g>
  <g fill="#E3EBF1" font-family="Arial, sans-serif" font-weight="700" font-size="18"><text x="111" y="102">Interesses</text><text x="111" y="128" fill="#93A7B8" font-size="13" font-weight="400">o que desperta energia</text><text x="410" y="250">Contexto</text><text x="410" y="276" fill="#93A7B8" font-size="13" font-weight="400">limites e possibilidades reais</text><text x="699" y="104">Experimentos</text><text x="699" y="130" fill="#93A7B8" font-size="13" font-weight="400">evidência antes da decisão</text></g>
</svg>
