<svg width="640" height="640" viewBox="0 0 640 640" fill="none" xmlns="http://www.w3.org/2000/svg">
  <g opacity="0.22" stroke="#4C6275"><path d="M-22 118C91 27 216 10 335 55C430 91 498 164 668 147"/><path d="M-38 170C94 78 229 64 350 105C474 148 551 222 684 197"/><path d="M-42 229C70 145 211 119 347 158C471 194 557 280 680 257"/><path d="M-50 451C71 374 194 348 326 378C454 407 547 492 689 467"/><path d="M-54 510C67 429 198 406 336 435C465 462 563 548 695 522"/><path d="M-48 573C81 488 216 468 353 497C482 524 574 605 696 582"/></g>
</svg>
